# MagicaVoxel @ Ephtracy

# group
o 

# material
mtllib umeyamadaichi-0.mtl
usemtl palette

# normals
vn -1 0 0
vn 1 0 0
vn 0 0 1
vn 0 0 -1
vn 0 -1 0
vn 0 1 0

# texcoords
vt 0.509766 0.5
vt 0.513672 0.5
vt 0.779297 0.5

# verts
v -1.8 0.1 0.1
v -1.8 0.1 -0.1
v -1.8 0.3 0.1
v -1.8 0.3 -0.1
v -1.7 0.3 0.1
v -1.7 0.3 -0.1
v -1.7 0.5 0.1
v -1.7 0.5 -0.1
v -1.6 0.5 0.1
v -1.6 0.5 -0.1
v -1.6 0.7 0.1
v -1.6 0.7 -0.1
v -1.5 0.7 0.1
v -1.5 0.7 -0.1
v -1.5 0.8 0.1
v -1.5 0.8 -0.1
v -1.4 0.8 0.1
v -1.4 0.8 -0.1
v -1.4 0.9 0.1
v -1.4 0.9 -0.1
v -1.3 0.9 0.1
v -1.3 0.9 -0.1
v -1.3 2.3 0.1
v -1.3 2.3 -0.1
v -1.2 2.3 0.1
v -1.2 2.3 -0.1
v -1.2 2.5 0.1
v -1.2 2.5 -0.1
v -1.1 2.5 0.1
v -1.1 2.5 -0.1
v -1.1 2.6 0.1
v -1.1 2.6 -0.1
v -0.9 2.6 0.1
v -0.9 2.6 -0.1
v -0.9 2.7 0.1
v -0.9 2.7 -0.1
v -1.6 0.1 0.1
v -1.6 0.1 -0.1
v -1.6 0.2 0.1
v -1.6 0.2 -0.1
v -1.4 0.2 0.1
v -1.4 0.2 -0.1
v -1.4 0.3 0.1
v -1.4 0.3 -0.1
v -1.2 0.3 0.1
v -1.2 0.3 -0.1
v -1.2 0.4 0.1
v -1.2 0.4 -0.1
v -1.1 0.4 0.1
v -1.1 0.4 -0.1
v -1.1 0.5 0.1
v -1.1 0.5 -0.1
v -1 0.5 0.1
v -1 0.5 -0.1
v -1 0.6 0.1
v -1 0.6 -0.1
v 1.5 2.6 0.1
v 1.5 2.6 -0.1
v 1.5 2.7 0.1
v 1.5 2.7 -0.1
v 1.6 2.5 0.1
v 1.6 2.5 -0.1
v 1.6 2.6 0.1
v 1.6 2.6 -0.1
v 1.8 0.6 0.1
v 1.8 0.6 -0.1
v 1.8 0.7 0.1
v 1.8 0.7 -0.1
v 1.8 0.8 0.1
v 1.8 0.8 0
v 1.8 0.9 0.1
v 1.8 0.9 0
v 1.8 2.4 0.1
v 1.8 2.4 -0.1
v 1.8 2.5 0.1
v 1.8 2.5 -0.1
v 1.9 0.7 0.1
v 1.9 0.7 -0.1
v 1.9 0.8 0.1
v 1.9 0.8 0
v 1.9 0.9 0.1
v 1.9 0.9 0
v 1.9 2.4 0.1
v 1.9 2.4 -0.1
v -1.8 0.1 0.1
v -1.8 0.3 0.1
v -1.7 0.2 0.1
v -1.7 0.3 0.1
v -1.7 0.5 0.1
v -1.6 0.1 0.1
v -1.6 0.2 0.1
v -1.6 0.3 0.1
v -1.6 0.5 0.1
v -1.6 0.7 0.1
v -1.5 0.5 0.1
v -1.5 0.7 0.1
v -1.5 0.8 0.1
v -1.4 0.2 0.1
v -1.4 0.3 0.1
v -1.4 0.4 0.1
v -1.4 0.7 0.1
v -1.4 0.8 0.1
v -1.4 0.9 0.1
v -1.3 0.8 0.1
v -1.3 0.9 0.1
v -1.3 2.3 0.1
v -1.2 0.3 0.1
v -1.2 0.4 0.1
v -1.2 0.5 0.1
v -1.2 0.9 0.1
v -1.2 2.3 0.1
v -1.2 2.5 0.1
v -1.1 0.4 0.1
v -1.1 0.5 0.1
v -1.1 0.6 0.1
v -1.1 1.3 0.1
v -1.1 1.4 0.1
v -1.1 2.3 0.1
v -1.1 2.5 0.1
v -1.1 2.6 0.1
v -1 0.5 0.1
v -1 0.6 0.1
v -1 0.7 0.1
v -1 1 0.1
v -1 1.3 0.1
v -1 1.4 0.1
v -1 1.5 0.1
v -1 1.8 0.1
v -1 2 0.1
v -0.9 0.8 0.1
v -0.9 0.9 0.1
v -0.9 1 0.1
v -0.9 1.3 0.1
v -0.9 1.4 0.1
v -0.9 1.5 0.1
v -0.9 2 0.1
v -0.9 2.4 0.1
v -0.9 2.5 0.1
v -0.9 2.6 0.1
v -0.9 2.7 0.1
v -0.8 0.8 0.1
v -0.8 0.9 0.1
v -0.8 1.3 0.1
v -0.8 1.8 0.1
v -0.8 1.9 0.1
v -0.8 2 0.1
v -0.8 2.2 0.1
v -0.8 2.3 0.1
v -0.8 2.4 0.1
v -0.7 0.9 0.1
v -0.7 1.4 0.1
v -0.7 1.5 0.1
v -0.7 1.9 0.1
v -0.7 2 0.1
v -0.6 1.2 0.1
v -0.6 1.4 0.1
v -0.6 1.5 0.1
v -0.6 2.2 0.1
v -0.6 2.3 0.1
v -0.5 1.2 0.1
v -0.5 1.4 0.1
v -0.5 2.1 0.1
v -0.5 2.2 0.1
v -0.4 0.9 0.1
v -0.4 1 0.1
v -0.4 1.3 0.1
v -0.4 1.4 0.1
v -0.4 2.3 0.1
v -0.4 2.4 0.1
v -0.3 0.8 0.1
v -0.3 0.9 0.1
v -0.3 1 0.1
v -0.3 1.8 0.1
v -0.3 1.9 0.1
v -0.2 1.8 0.1
v -0.2 1.9 0.1
v -0.2 2.1 0.1
v -0.2 2.3 0.1
v -0.2 2.4 0.1
v -0.1 1.2 0.1
v -0.1 1.3 0.1
v -0.1 1.9 0.1
v -0.1 2.2 0.1
v -1.19209e-07 0.8 0.1
v -1.19209e-07 0.9 0.1
v -1.19209e-07 1.2 0.1
v -1.19209e-07 1.4 0.1
v -1.19209e-07 1.5 0.1
v 0.0999999 1.3 0.1
v 0.0999999 1.4 0.1
v 0.0999999 1.5 0.1
v 0.0999999 1.9 0.1
v 0.0999999 2 0.1
v 0.0999999 2.3 0.1
v 0.0999999 2.4 0.1
v 0.2 1.3 0.1
v 0.2 1.4 0.1
v 0.2 1.8 0.1
v 0.2 1.9 0.1
v 0.2 2 0.1
v 0.3 0.9 0.1
v 0.3 1.5 0.1
v 0.4 0.8 0.1
v 0.4 0.9 0.1
v 0.4 1.5 0.1
v 0.4 2.2 0.1
v 0.4 2.3 0.1
v 0.5 0.8 0.1
v 0.5 0.9 0.1
v 0.5 1.1 0.1
v 0.5 1.8 0.1
v 0.5 1.9 0.1
v 0.5 2.2 0.1
v 0.5 2.4 0.1
v 0.6 0.9 0.1
v 0.6 1.1 0.1
v 0.7 1.3 0.1
v 0.7 1.4 0.1
v 0.8 0.8 0.1
v 0.8 1 0.1
v 0.8 1.1 0.1
v 0.8 1.2 0.1
v 0.8 2 0.1
v 0.8 2.1 0.1
v 0.8 2.3 0.1
v 0.8 2.4 0.1
v 0.9 1 0.1
v 0.9 1.1 0.1
v 0.9 1.2 0.1
v 0.9 1.3 0.1
v 0.9 1.4 0.1
v 0.9 1.5 0.1
v 1 0.8 0.1
v 1 0.9 0.1
v 1 1 0.1
v 1 1.1 0.1
v 1 1.2 0.1
v 1 1.3 0.1
v 1 1.4 0.1
v 1 1.5 0.1
v 1 1.9 0.1
v 1 2 0.1
v 1 2.1 0.1
v 1 2.2 0.1
v 1.1 0.9 0.1
v 1.1 1 0.1
v 1.1 1.1 0.1
v 1.1 1.2 0.1
v 1.1 1.8 0.1
v 1.1 1.9 0.1
v 1.1 2 0.1
v 1.1 2.1 0.1
v 1.1 2.2 0.1
v 1.1 2.3 0.1
v 1.2 0.9 0.1
v 1.2 1 0.1
v 1.2 1.3 0.1
v 1.2 1.4 0.1
v 1.2 2.2 0.1
v 1.2 2.3 0.1
v 1.3 0.9 0.1
v 1.3 1 0.1
v 1.3 1.1 0.1
v 1.3 1.8 0.1
v 1.3 1.9 0.1
v 1.3 2 0.1
v 1.3 2.1 0.1
v 1.3 2.3 0.1
v 1.3 2.4 0.1
v 1.4 1 0.1
v 1.4 1.1 0.1
v 1.4 1.2 0.1
v 1.5 1 0.1
v 1.5 1.1 0.1
v 1.5 1.2 0.1
v 1.5 1.7 0.1
v 1.5 1.8 0.1
v 1.5 1.9 0.1
v 1.5 2.4 0.1
v 1.5 2.5 0.1
v 1.5 2.6 0.1
v 1.5 2.7 0.1
v 1.6 0.9 0.1
v 1.6 1 0.1
v 1.6 1.1 0.1
v 1.6 1.7 0.1
v 1.6 1.8 0.1
v 1.6 1.9 0.1
v 1.6 2.4 0.1
v 1.6 2.5 0.1
v 1.6 2.6 0.1
v 1.7 0.8 0.1
v 1.7 0.9 0.1
v 1.7 1 0.1
v 1.8 0.6 0.1
v 1.8 0.7 0.1
v 1.8 0.8 0.1
v 1.8 0.9 0.1
v 1.8 2.4 0.1
v 1.8 2.5 0.1
v 1.9 0.7 0.1
v 1.9 0.8 0.1
v 1.9 0.9 0.1
v 1.9 2.4 0.1
v 1.8 0.8 0
v 1.8 0.9 0
v 1.9 0.8 0
v 1.9 0.9 0
v -1.8 0.1 -0.1
v -1.8 0.3 -0.1
v -1.7 0.2 -0.1
v -1.7 0.3 -0.1
v -1.7 0.5 -0.1
v -1.6 0.1 -0.1
v -1.6 0.2 -0.1
v -1.6 0.3 -0.1
v -1.6 0.5 -0.1
v -1.6 0.7 -0.1
v -1.5 0.5 -0.1
v -1.5 0.7 -0.1
v -1.5 0.8 -0.1
v -1.4 0.2 -0.1
v -1.4 0.3 -0.1
v -1.4 0.4 -0.1
v -1.4 0.7 -0.1
v -1.4 0.8 -0.1
v -1.4 0.9 -0.1
v -1.3 0.8 -0.1
v -1.3 0.9 -0.1
v -1.3 2.3 -0.1
v -1.2 0.3 -0.1
v -1.2 0.4 -0.1
v -1.2 0.5 -0.1
v -1.2 0.9 -0.1
v -1.2 2.3 -0.1
v -1.2 2.5 -0.1
v -1.1 0.4 -0.1
v -1.1 0.5 -0.1
v -1.1 0.6 -0.1
v -1.1 2.3 -0.1
v -1.1 2.5 -0.1
v -1.1 2.6 -0.1
v -1 0.5 -0.1
v -1 0.6 -0.1
v -1 0.7 -0.1
v -0.9 2.5 -0.1
v -0.9 2.6 -0.1
v -0.9 2.7 -0.1
v 1.5 2.5 -0.1
v 1.5 2.6 -0.1
v 1.5 2.7 -0.1
v 1.6 2.4 -0.1
v 1.6 2.5 -0.1
v 1.6 2.6 -0.1
v 1.8 0.6 -0.1
v 1.8 0.7 -0.1
v 1.8 2.4 -0.1
v 1.8 2.5 -0.1
v 1.9 0.7 -0.1
v 1.9 2.4 -0.1
v -1.8 0.1 0.1
v -1.6 0.1 0.1
v -1.8 0.1 -0.1
v -1.6 0.1 -0.1
v -1.6 0.2 0.1
v -1.4 0.2 0.1
v -1.6 0.2 -0.1
v -1.4 0.2 -0.1
v -1.4 0.3 0.1
v -1.2 0.3 0.1
v -1.4 0.3 -0.1
v -1.2 0.3 -0.1
v -1.2 0.4 0.1
v -1.1 0.4 0.1
v -1.2 0.4 -0.1
v -1.1 0.4 -0.1
v -1.1 0.5 0.1
v -1 0.5 0.1
v -1.1 0.5 -0.1
v -1 0.5 -0.1
v -1 0.6 0.1
v 1.8 0.6 0.1
v -1 0.6 -0.1
v 1.8 0.6 -0.1
v 1.8 0.7 0.1
v 1.9 0.7 0.1
v 1.8 0.7 -0.1
v 1.9 0.7 -0.1
v 1.8 0.9 0.1
v 1.9 0.9 0.1
v 1.8 0.9 0
v 1.9 0.9 0
v -1.8 0.3 0.1
v -1.7 0.3 0.1
v -1.8 0.3 -0.1
v -1.7 0.3 -0.1
v -1.7 0.5 0.1
v -1.6 0.5 0.1
v -1.7 0.5 -0.1
v -1.6 0.5 -0.1
v -1.6 0.7 0.1
v -1.5 0.7 0.1
v -1.6 0.7 -0.1
v -1.5 0.7 -0.1
v -1.5 0.8 0.1
v -1.4 0.8 0.1
v 1.8 0.8 0.1
v 1.9 0.8 0.1
v 1.8 0.8 0
v 1.9 0.8 0
v -1.5 0.8 -0.1
v -1.4 0.8 -0.1
v -1.4 0.9 0.1
v -1.3 0.9 0.1
v -1.4 0.9 -0.1
v -1.3 0.9 -0.1
v -1.3 2.3 0.1
v -1.2 2.3 0.1
v -1.3 2.3 -0.1
v -1.2 2.3 -0.1
v 1.8 2.4 0.1
v 1.9 2.4 0.1
v 1.8 2.4 -0.1
v 1.9 2.4 -0.1
v -1.2 2.5 0.1
v -1.1 2.5 0.1
v 1.6 2.5 0.1
v 1.8 2.5 0.1
v -1.2 2.5 -0.1
v -1.1 2.5 -0.1
v 1.6 2.5 -0.1
v 1.8 2.5 -0.1
v -1.1 2.6 0.1
v -0.9 2.6 0.1
v 1.5 2.6 0.1
v 1.6 2.6 0.1
v -1.1 2.6 -0.1
v -0.9 2.6 -0.1
v 1.5 2.6 -0.1
v 1.6 2.6 -0.1
v -0.9 2.7 0.1
v 1.5 2.7 0.1
v -0.9 2.7 -0.1
v 1.5 2.7 -0.1

# faces
f 3/2/1 2/2/1 1/2/1
f 4/2/1 2/2/1 3/2/1
f 7/2/1 6/2/1 5/2/1
f 8/2/1 6/2/1 7/2/1
f 11/2/1 10/2/1 9/2/1
f 12/2/1 10/2/1 11/2/1
f 15/2/1 14/2/1 13/2/1
f 16/2/1 14/2/1 15/2/1
f 19/2/1 18/2/1 17/2/1
f 20/2/1 18/2/1 19/2/1
f 23/2/1 22/2/1 21/2/1
f 24/2/1 22/2/1 23/2/1
f 27/2/1 26/2/1 25/2/1
f 28/2/1 26/2/1 27/2/1
f 31/2/1 30/2/1 29/2/1
f 32/2/1 30/2/1 31/2/1
f 35/2/1 34/2/1 33/2/1
f 36/2/1 34/2/1 35/2/1
f 37/2/2 38/2/2 39/2/2
f 39/2/2 38/2/2 40/2/2
f 41/2/2 42/2/2 43/2/2
f 43/2/2 42/2/2 44/2/2
f 45/2/2 46/2/2 47/2/2
f 47/2/2 46/2/2 48/2/2
f 49/2/2 50/2/2 51/2/2
f 51/2/2 50/2/2 52/2/2
f 53/2/2 54/2/2 55/2/2
f 55/2/2 54/2/2 56/2/2
f 57/2/2 58/2/2 59/2/2
f 59/2/2 58/2/2 60/2/2
f 61/2/2 62/2/2 63/2/2
f 63/2/2 62/2/2 64/2/2
f 65/2/2 66/2/2 67/2/2
f 67/2/2 66/2/2 68/2/2
f 69/3/2 70/3/2 71/3/2
f 71/3/2 70/3/2 72/3/2
f 73/2/2 74/2/2 75/2/2
f 75/2/2 74/2/2 76/2/2
f 77/2/2 78/2/2 79/2/2
f 79/2/2 78/2/2 80/2/2
f 80/2/2 78/2/2 82/2/2
f 81/2/2 82/2/2 83/2/2
f 82/2/2 78/2/2 84/2/2
f 83/2/2 82/2/2 84/2/2
f 87/2/3 86/2/3 85/2/3
f 88/2/3 86/2/3 87/2/3
f 90/2/3 87/2/3 85/2/3
f 91/1/3 88/1/3 87/1/3
f 91/2/3 87/2/3 90/2/3
f 92/2/3 89/2/3 88/2/3
f 92/1/3 88/1/3 91/1/3
f 93/2/3 89/2/3 92/2/3
f 95/2/3 94/2/3 93/2/3
f 95/1/3 93/1/3 92/1/3
f 96/2/3 94/2/3 95/2/3
f 98/2/3 92/2/3 91/2/3
f 99/1/3 95/1/3 92/1/3
f 99/2/3 92/2/3 98/2/3
f 99/1/3 96/1/3 95/1/3
f 100/1/3 96/1/3 99/1/3
f 101/2/3 97/2/3 96/2/3
f 101/1/3 96/1/3 100/1/3
f 102/2/3 97/2/3 101/2/3
f 104/2/3 103/2/3 102/2/3
f 104/1/3 102/1/3 101/1/3
f 104/1/3 101/1/3 100/1/3
f 105/2/3 103/2/3 104/2/3
f 107/2/3 100/2/3 99/2/3
f 108/1/3 104/1/3 100/1/3
f 108/2/3 100/2/3 107/2/3
f 108/1/3 105/1/3 104/1/3
f 109/1/3 105/1/3 108/1/3
f 110/2/3 106/2/3 105/2/3
f 110/1/3 105/1/3 109/1/3
f 111/2/3 106/2/3 110/2/3
f 113/2/3 109/2/3 108/2/3
f 114/1/3 111/1/3 110/1/3
f 114/2/3 109/2/3 113/2/3
f 114/1/3 110/1/3 109/1/3
f 115/1/3 111/1/3 114/1/3
f 116/1/3 111/1/3 115/1/3
f 117/1/3 111/1/3 116/1/3
f 118/2/3 112/2/3 111/2/3
f 118/1/3 111/1/3 117/1/3
f 119/2/3 112/2/3 118/2/3
f 121/2/3 115/2/3 114/2/3
f 122/1/3 116/1/3 115/1/3
f 122/2/3 115/2/3 121/2/3
f 123/1/3 116/1/3 122/1/3
f 124/1/3 116/1/3 123/1/3
f 125/3/3 117/3/3 116/3/3
f 125/1/3 116/1/3 124/1/3
f 126/1/3 119/1/3 118/1/3
f 126/3/3 117/3/3 125/3/3
f 126/1/3 118/1/3 117/1/3
f 127/1/3 119/1/3 126/1/3
f 128/1/3 119/1/3 127/1/3
f 129/1/3 119/1/3 128/1/3
f 130/1/3 124/1/3 123/1/3
f 131/1/3 124/1/3 130/1/3
f 132/3/3 125/3/3 124/3/3
f 132/1/3 124/1/3 131/1/3
f 132/3/3 126/3/3 125/3/3
f 132/3/3 127/3/3 126/3/3
f 133/3/3 127/3/3 132/3/3
f 134/3/3 127/3/3 133/3/3
f 135/1/3 128/1/3 127/1/3
f 135/3/3 127/3/3 134/3/3
f 136/1/3 119/1/3 129/1/3
f 136/3/3 129/3/3 128/3/3
f 137/1/3 119/1/3 136/1/3
f 138/2/3 120/2/3 119/2/3
f 138/1/3 119/1/3 137/1/3
f 139/2/3 120/2/3 138/2/3
f 141/3/3 131/3/3 130/3/3
f 141/1/3 130/1/3 123/1/3
f 142/1/3 132/1/3 131/1/3
f 142/3/3 131/3/3 141/3/3
f 142/1/3 133/1/3 132/1/3
f 143/3/3 134/3/3 133/3/3
f 143/1/3 133/1/3 142/1/3
f 144/1/3 128/1/3 135/1/3
f 144/3/3 137/3/3 136/3/3
f 144/1/3 135/1/3 134/1/3
f 144/3/3 136/3/3 128/3/3
f 145/3/3 137/3/3 144/3/3
f 146/3/3 137/3/3 145/3/3
f 147/3/3 137/3/3 146/3/3
f 148/3/3 137/3/3 147/3/3
f 149/1/3 138/1/3 137/1/3
f 149/3/3 137/3/3 148/3/3
f 149/1/3 139/1/3 138/1/3
f 150/3/3 143/3/3 142/3/3
f 150/1/3 142/1/3 141/1/3
f 151/3/3 134/3/3 143/3/3
f 151/3/3 143/3/3 150/3/3
f 151/1/3 144/1/3 134/1/3
f 151/1/3 145/1/3 144/1/3
f 152/1/3 145/1/3 151/1/3
f 153/3/3 146/3/3 145/3/3
f 153/1/3 145/1/3 152/1/3
f 154/1/3 147/1/3 146/1/3
f 154/3/3 146/3/3 153/3/3
f 155/1/3 151/1/3 150/1/3
f 156/3/3 152/3/3 151/3/3
f 156/1/3 151/1/3 155/1/3
f 157/1/3 153/1/3 152/1/3
f 157/3/3 152/3/3 156/3/3
f 157/1/3 154/1/3 153/1/3
f 158/3/3 148/3/3 147/3/3
f 158/1/3 154/1/3 157/1/3
f 158/1/3 147/1/3 154/1/3
f 159/1/3 149/1/3 148/1/3
f 159/3/3 148/3/3 158/3/3
f 160/3/3 156/3/3 155/3/3
f 160/1/3 155/1/3 150/1/3
f 161/1/3 157/1/3 156/1/3
f 161/3/3 156/3/3 160/3/3
f 161/1/3 158/1/3 157/1/3
f 161/1/3 159/1/3 158/1/3
f 162/1/3 159/1/3 161/1/3
f 163/1/3 159/1/3 162/1/3
f 164/1/3 150/1/3 141/1/3
f 164/1/3 160/1/3 150/1/3
f 164/1/3 161/1/3 160/1/3
f 164/1/3 162/1/3 161/1/3
f 165/1/3 162/1/3 164/1/3
f 166/1/3 162/1/3 165/1/3
f 167/1/3 162/1/3 166/1/3
f 168/1/3 159/1/3 163/1/3
f 168/1/3 149/1/3 159/1/3
f 169/1/3 139/1/3 149/1/3
f 169/1/3 149/1/3 168/1/3
f 170/1/3 141/1/3 123/1/3
f 170/1/3 164/1/3 141/1/3
f 171/3/3 165/3/3 164/3/3
f 171/1/3 164/1/3 170/1/3
f 172/1/3 166/1/3 165/1/3
f 172/3/3 165/3/3 171/3/3
f 173/1/3 162/1/3 167/1/3
f 174/1/3 162/1/3 173/1/3
f 175/1/3 173/1/3 167/1/3
f 175/3/3 174/3/3 173/3/3
f 176/1/3 162/1/3 174/1/3
f 176/3/3 174/3/3 175/3/3
f 177/3/3 163/3/3 162/3/3
f 177/1/3 162/1/3 176/1/3
f 178/1/3 168/1/3 163/1/3
f 178/3/3 169/3/3 168/3/3
f 179/1/3 139/1/3 169/1/3
f 179/3/3 169/3/3 178/3/3
f 180/1/3 166/1/3 172/1/3
f 180/1/3 172/1/3 171/1/3
f 181/3/3 167/3/3 166/3/3
f 181/1/3 166/1/3 180/1/3
f 182/1/3 176/1/3 175/1/3
f 182/3/3 177/3/3 176/3/3
f 183/3/3 163/3/3 177/3/3
f 183/3/3 177/3/3 182/3/3
f 183/1/3 178/1/3 163/1/3
f 183/1/3 179/1/3 178/1/3
f 184/1/3 170/1/3 123/1/3
f 184/3/3 171/3/3 170/3/3
f 185/1/3 180/1/3 171/1/3
f 185/3/3 171/3/3 184/3/3
f 186/3/3 181/3/3 180/3/3
f 186/1/3 180/1/3 185/1/3
f 187/1/3 182/1/3 175/1/3
f 187/3/3 181/3/3 186/3/3
f 187/3/3 167/3/3 181/3/3
f 187/1/3 183/1/3 182/1/3
f 187/1/3 175/1/3 167/1/3
f 188/1/3 183/1/3 187/1/3
f 189/1/3 186/1/3 185/1/3
f 189/1/3 185/1/3 184/1/3
f 189/1/3 187/1/3 186/1/3
f 190/3/3 188/3/3 187/3/3
f 190/1/3 187/1/3 189/1/3
f 191/1/3 183/1/3 188/1/3
f 191/3/3 188/3/3 190/3/3
f 192/1/3 183/1/3 191/1/3
f 193/1/3 183/1/3 192/1/3
f 194/1/3 179/1/3 183/1/3
f 194/1/3 183/1/3 193/1/3
f 195/1/3 139/1/3 179/1/3
f 195/1/3 179/1/3 194/1/3
f 196/3/3 190/3/3 189/3/3
f 196/1/3 189/1/3 184/1/3
f 197/1/3 191/1/3 190/1/3
f 197/3/3 190/3/3 196/3/3
f 197/1/3 192/1/3 191/1/3
f 198/1/3 192/1/3 197/1/3
f 199/3/3 193/3/3 192/3/3
f 199/1/3 192/1/3 198/1/3
f 200/1/3 194/1/3 193/1/3
f 200/3/3 193/3/3 199/3/3
f 201/1/3 198/1/3 197/1/3
f 201/1/3 196/1/3 184/1/3
f 201/1/3 197/1/3 196/1/3
f 202/1/3 198/1/3 201/1/3
f 203/1/3 184/1/3 123/1/3
f 203/1/3 201/1/3 184/1/3
f 204/3/3 202/3/3 201/3/3
f 204/1/3 201/1/3 203/1/3
f 205/1/3 198/1/3 202/1/3
f 205/3/3 202/3/3 204/3/3
f 206/1/3 194/1/3 200/1/3
f 206/1/3 200/1/3 199/1/3
f 207/3/3 195/3/3 194/3/3
f 207/1/3 194/1/3 206/1/3
f 208/3/3 204/3/3 203/3/3
f 208/1/3 203/1/3 123/1/3
f 209/1/3 205/1/3 204/1/3
f 209/3/3 204/3/3 208/3/3
f 210/1/3 205/1/3 209/1/3
f 211/3/3 199/3/3 198/3/3
f 211/1/3 205/1/3 210/1/3
f 211/1/3 198/1/3 205/1/3
f 212/1/3 206/1/3 199/1/3
f 212/3/3 199/3/3 211/3/3
f 213/3/3 207/3/3 206/3/3
f 213/1/3 206/1/3 212/1/3
f 214/1/3 139/1/3 195/1/3
f 214/3/3 207/3/3 213/3/3
f 214/3/3 195/3/3 207/3/3
f 215/3/3 210/3/3 209/3/3
f 215/1/3 209/1/3 208/1/3
f 216/1/3 213/1/3 212/1/3
f 216/3/3 210/3/3 215/3/3
f 216/1/3 214/1/3 213/1/3
f 216/1/3 212/1/3 211/1/3
f 216/1/3 211/1/3 210/1/3
f 217/1/3 216/1/3 215/1/3
f 217/1/3 214/1/3 216/1/3
f 218/1/3 214/1/3 217/1/3
f 219/1/3 215/1/3 208/1/3
f 219/1/3 208/1/3 123/1/3
f 219/1/3 217/1/3 215/1/3
f 220/1/3 217/1/3 219/1/3
f 221/1/3 217/1/3 220/1/3
f 222/1/3 217/1/3 221/1/3
f 223/1/3 214/1/3 218/1/3
f 224/1/3 214/1/3 223/1/3
f 225/1/3 214/1/3 224/1/3
f 226/1/3 139/1/3 214/1/3
f 226/1/3 214/1/3 225/1/3
f 227/3/3 220/3/3 219/3/3
f 227/1/3 221/1/3 220/1/3
f 228/3/3 222/3/3 221/3/3
f 228/1/3 221/1/3 227/1/3
f 229/1/3 217/1/3 222/1/3
f 229/3/3 222/3/3 228/3/3
f 230/3/3 218/3/3 217/3/3
f 230/1/3 217/1/3 229/1/3
f 231/1/3 223/1/3 218/1/3
f 231/3/3 218/3/3 230/3/3
f 232/1/3 223/1/3 231/1/3
f 233/3/3 228/3/3 227/3/3
f 233/3/3 229/3/3 228/3/3
f 233/3/3 232/3/3 231/3/3
f 233/3/3 231/3/3 230/3/3
f 233/1/3 219/1/3 123/1/3
f 233/3/3 230/3/3 229/3/3
f 233/3/3 227/3/3 219/3/3
f 234/3/3 232/3/3 233/3/3
f 235/3/3 232/3/3 234/3/3
f 236/3/3 232/3/3 235/3/3
f 237/3/3 232/3/3 236/3/3
f 238/3/3 232/3/3 237/3/3
f 239/3/3 232/3/3 238/3/3
f 240/1/3 223/1/3 232/1/3
f 240/3/3 232/3/3 239/3/3
f 241/1/3 223/1/3 240/1/3
f 242/3/3 224/3/3 223/3/3
f 242/1/3 223/1/3 241/1/3
f 243/1/3 225/1/3 224/1/3
f 243/3/3 224/3/3 242/3/3
f 244/1/3 225/1/3 243/1/3
f 245/1/3 234/1/3 233/1/3
f 245/3/3 235/3/3 234/3/3
f 246/1/3 236/1/3 235/1/3
f 246/3/3 235/3/3 245/3/3
f 247/3/3 237/3/3 236/3/3
f 247/1/3 236/1/3 246/1/3
f 248/1/3 238/1/3 237/1/3
f 248/3/3 237/3/3 247/3/3
f 249/1/3 241/1/3 240/1/3
f 249/1/3 240/1/3 239/1/3
f 250/3/3 242/3/3 241/3/3
f 250/1/3 241/1/3 249/1/3
f 250/3/3 244/3/3 243/3/3
f 250/3/3 243/3/3 242/3/3
f 251/3/3 244/3/3 250/3/3
f 252/3/3 244/3/3 251/3/3
f 253/1/3 225/1/3 244/1/3
f 253/3/3 244/3/3 252/3/3
f 254/3/3 226/3/3 225/3/3
f 254/1/3 225/1/3 253/1/3
f 255/1/3 248/1/3 247/1/3
f 255/1/3 245/1/3 233/1/3
f 255/1/3 246/1/3 245/1/3
f 255/1/3 247/1/3 246/1/3
f 256/1/3 248/1/3 255/1/3
f 257/3/3 239/3/3 238/3/3
f 257/1/3 248/1/3 256/1/3
f 257/1/3 238/1/3 248/1/3
f 258/1/3 249/1/3 239/1/3
f 258/3/3 239/3/3 257/3/3
f 259/1/3 253/1/3 252/1/3
f 259/3/3 254/3/3 253/3/3
f 260/3/3 226/3/3 254/3/3
f 260/3/3 254/3/3 259/3/3
f 261/3/3 256/3/3 255/3/3
f 261/1/3 255/1/3 233/1/3
f 262/1/3 257/1/3 256/1/3
f 262/3/3 256/3/3 261/3/3
f 262/1/3 258/1/3 257/1/3
f 263/1/3 258/1/3 262/1/3
f 264/1/3 249/1/3 258/1/3
f 264/1/3 258/1/3 263/1/3
f 264/3/3 250/3/3 249/3/3
f 265/1/3 251/1/3 250/1/3
f 265/3/3 250/3/3 264/3/3
f 266/3/3 252/3/3 251/3/3
f 266/1/3 251/1/3 265/1/3
f 267/1/3 260/1/3 259/1/3
f 267/3/3 252/3/3 266/3/3
f 267/1/3 259/1/3 252/1/3
f 268/3/3 226/3/3 260/3/3
f 268/1/3 260/1/3 267/1/3
f 269/1/3 139/1/3 226/1/3
f 269/3/3 226/3/3 268/3/3
f 270/3/3 263/3/3 262/3/3
f 270/1/3 262/1/3 261/1/3
f 271/1/3 267/1/3 266/1/3
f 271/3/3 263/3/3 270/3/3
f 271/1/3 266/1/3 265/1/3
f 271/1/3 269/1/3 268/1/3
f 271/1/3 264/1/3 263/1/3
f 271/1/3 265/1/3 264/1/3
f 271/1/3 268/1/3 267/1/3
f 272/1/3 269/1/3 271/1/3
f 273/1/3 270/1/3 261/1/3
f 273/1/3 271/1/3 270/1/3
f 274/3/3 272/3/3 271/3/3
f 274/1/3 271/1/3 273/1/3
f 275/1/3 269/1/3 272/1/3
f 275/3/3 272/3/3 274/3/3
f 276/1/3 269/1/3 275/1/3
f 277/1/3 269/1/3 276/1/3
f 278/1/3 269/1/3 277/1/3
f 279/1/3 139/1/3 269/1/3
f 279/1/3 269/1/3 278/1/3
f 280/1/3 139/1/3 279/1/3
f 281/2/3 140/2/3 139/2/3
f 281/1/3 139/1/3 280/1/3
f 282/2/3 140/2/3 281/2/3
f 283/1/3 261/1/3 233/1/3
f 283/1/3 273/1/3 261/1/3
f 284/3/3 274/3/3 273/3/3
f 284/1/3 273/1/3 283/1/3
f 285/1/3 275/1/3 274/1/3
f 285/3/3 274/3/3 284/3/3
f 285/1/3 276/1/3 275/1/3
f 286/3/3 277/3/3 276/3/3
f 286/1/3 276/1/3 285/1/3
f 287/1/3 278/1/3 277/1/3
f 287/3/3 277/3/3 286/3/3
f 288/3/3 279/3/3 278/3/3
f 288/1/3 278/1/3 287/1/3
f 289/1/3 280/1/3 279/1/3
f 289/3/3 279/3/3 288/3/3
f 290/2/3 281/2/3 280/2/3
f 290/1/3 280/1/3 289/1/3
f 291/2/3 281/2/3 290/2/3
f 292/1/3 283/1/3 233/1/3
f 292/1/3 233/1/3 123/1/3
f 293/3/3 284/3/3 283/3/3
f 293/1/3 283/1/3 292/1/3
f 294/1/3 288/1/3 287/1/3
f 294/3/3 284/3/3 293/3/3
f 294/1/3 286/1/3 285/1/3
f 294/1/3 285/1/3 284/1/3
f 294/1/3 287/1/3 286/1/3
f 294/1/3 289/1/3 288/1/3
f 295/2/3 123/2/3 122/2/3
f 296/1/3 292/1/3 123/1/3
f 296/2/3 123/2/3 295/2/3
f 297/3/3 293/3/3 292/3/3
f 297/1/3 292/1/3 296/1/3
f 298/1/3 294/1/3 293/1/3
f 298/3/3 293/3/3 297/3/3
f 299/1/3 289/1/3 294/1/3
f 299/1/3 294/1/3 298/1/3
f 299/2/3 290/2/3 289/2/3
f 300/2/3 290/2/3 299/2/3
f 301/2/3 297/2/3 296/2/3
f 302/2/3 297/2/3 301/2/3
f 303/2/3 299/2/3 298/2/3
f 304/2/3 299/2/3 303/2/3
f 307/2/3 306/2/3 305/2/3
f 308/2/3 306/2/3 307/2/3
f 309/2/4 310/2/4 311/2/4
f 311/2/4 310/2/4 312/2/4
f 309/2/4 311/2/4 314/2/4
f 311/1/4 312/1/4 315/1/4
f 314/2/4 311/2/4 315/2/4
f 312/2/4 313/2/4 316/2/4
f 315/1/4 312/1/4 316/1/4
f 316/2/4 313/2/4 317/2/4
f 317/2/4 318/2/4 319/2/4
f 316/1/4 317/1/4 319/1/4
f 319/2/4 318/2/4 320/2/4
f 315/2/4 316/2/4 322/2/4
f 316/1/4 319/1/4 323/1/4
f 322/2/4 316/2/4 323/2/4
f 319/1/4 320/1/4 323/1/4
f 323/1/4 320/1/4 324/1/4
f 320/2/4 321/2/4 325/2/4
f 324/1/4 320/1/4 325/1/4
f 325/2/4 321/2/4 326/2/4
f 326/2/4 327/2/4 328/2/4
f 325/1/4 326/1/4 328/1/4
f 324/1/4 325/1/4 328/1/4
f 328/2/4 327/2/4 329/2/4
f 323/2/4 324/2/4 331/2/4
f 324/1/4 328/1/4 332/1/4
f 331/2/4 324/2/4 332/2/4
f 328/1/4 329/1/4 332/1/4
f 332/1/4 329/1/4 333/1/4
f 329/2/4 330/2/4 334/2/4
f 333/1/4 329/1/4 334/1/4
f 334/2/4 330/2/4 335/2/4
f 332/2/4 333/2/4 337/2/4
f 334/1/4 335/1/4 338/1/4
f 337/2/4 333/2/4 338/2/4
f 333/1/4 334/1/4 338/1/4
f 338/1/4 335/1/4 339/1/4
f 335/2/4 336/2/4 340/2/4
f 339/1/4 335/1/4 340/1/4
f 340/2/4 336/2/4 341/2/4
f 338/2/4 339/2/4 343/2/4
f 340/1/4 341/1/4 344/1/4
f 343/2/4 339/2/4 344/2/4
f 339/1/4 340/1/4 344/1/4
f 344/1/4 341/1/4 345/1/4
f 341/2/4 342/2/4 346/2/4
f 345/1/4 341/1/4 346/1/4
f 346/2/4 342/2/4 347/2/4
f 345/1/4 346/1/4 349/1/4
f 346/1/4 347/1/4 349/1/4
f 347/2/4 348/2/4 350/2/4
f 349/1/4 347/1/4 350/1/4
f 350/2/4 348/2/4 351/2/4
f 345/1/4 349/1/4 352/1/4
f 349/2/4 350/2/4 353/2/4
f 352/1/4 349/1/4 353/1/4
f 353/2/4 350/2/4 354/2/4
f 344/2/4 345/2/4 355/2/4
f 345/1/4 352/1/4 356/1/4
f 355/2/4 345/2/4 356/2/4
f 352/2/4 353/2/4 357/2/4
f 356/1/4 352/1/4 357/1/4
f 357/2/4 353/2/4 358/2/4
f 356/2/4 357/2/4 359/2/4
f 359/2/4 357/2/4 360/2/4
f 363/2/5 362/2/5 361/2/5
f 364/2/5 362/2/5 363/2/5
f 367/2/5 366/2/5 365/2/5
f 368/2/5 366/2/5 367/2/5
f 371/2/5 370/2/5 369/2/5
f 372/2/5 370/2/5 371/2/5
f 375/2/5 374/2/5 373/2/5
f 376/2/5 374/2/5 375/2/5
f 379/2/5 378/2/5 377/2/5
f 380/2/5 378/2/5 379/2/5
f 383/2/5 382/2/5 381/2/5
f 384/2/5 382/2/5 383/2/5
f 387/2/5 386/2/5 385/2/5
f 388/2/5 386/2/5 387/2/5
f 391/2/5 390/2/5 389/2/5
f 392/2/5 390/2/5 391/2/5
f 393/2/6 394/2/6 395/2/6
f 395/2/6 394/2/6 396/2/6
f 397/2/6 398/2/6 399/2/6
f 399/2/6 398/2/6 400/2/6
f 401/2/6 402/2/6 403/2/6
f 403/2/6 402/2/6 404/2/6
f 407/2/6 408/2/6 409/2/6
f 409/2/6 408/2/6 410/2/6
f 405/2/6 406/2/6 411/2/6
f 411/2/6 406/2/6 412/2/6
f 413/2/6 414/2/6 415/2/6
f 415/2/6 414/2/6 416/2/6
f 417/2/6 418/2/6 419/2/6
f 419/2/6 418/2/6 420/2/6
f 421/2/6 422/2/6 423/2/6
f 423/2/6 422/2/6 424/2/6
f 425/2/6 426/2/6 429/2/6
f 429/2/6 426/2/6 430/2/6
f 427/2/6 428/2/6 431/2/6
f 431/2/6 428/2/6 432/2/6
f 433/2/6 434/2/6 437/2/6
f 437/2/6 434/2/6 438/2/6
f 435/2/6 436/2/6 439/2/6
f 439/2/6 436/2/6 440/2/6
f 441/2/6 442/2/6 443/2/6
f 443/2/6 442/2/6 444/2/6
