# MagicaVoxel @ Ephtracy

# group
o 

# material
mtllib umeyamadaichi-1.mtl
usemtl palette

# normals
vn -1 0 0
vn 1 0 0
vn 0 0 1
vn 0 0 -1
vn 0 -1 0
vn 0 1 0

# texcoords
vt 0.169922 0.5
vt 0.947266 0.5

# verts
v 0.6 2.1 0.2
v 0.6 2.1 0.1
v 0.6 2.2 0.3
v 0.6 2.2 0.2
v 0.6 2.2 0.1
v 0.6 2.2 0
v 0.6 2.4 0.3
v 0.6 2.4 0
v 1.2 2.1 0.2
v 1.2 2.1 0.1
v 1.2 2.2 0.2
v 1.2 2.2 0.1
v 1.4 2.2 0.3
v 1.4 2.2 0
v 1.4 2.4 0.3
v 1.4 2.4 0
v 0.6 2.2 0.3
v 0.6 2.4 0.3
v 1.2 2.2 0.3
v 1.2 2.3 0.3
v 1.3 2.3 0.3
v 1.3 2.4 0.3
v 1.4 2.2 0.3
v 1.4 2.4 0.3
v 0.6 2.1 0.2
v 0.6 2.2 0.2
v 1.2 2.1 0.2
v 1.2 2.2 0.2
v 0.6 2.1 0.1
v 0.6 2.2 0.1
v 1.2 2.1 0.1
v 1.2 2.2 0.1
v 0.6 2.2 0
v 0.6 2.4 0
v 1.2 2.2 0
v 1.2 2.3 0
v 1.3 2.3 0
v 1.3 2.4 0
v 1.4 2.2 0
v 1.4 2.4 0
v 0.6 2.1 0.2
v 1.2 2.1 0.2
v 0.6 2.1 0.1
v 1.2 2.1 0.1
v 0.6 2.2 0.3
v 1.2 2.2 0.3
v 1.4 2.2 0.3
v 0.6 2.2 0.2
v 1.2 2.2 0.2
v 0.6 2.2 0.1
v 1.2 2.2 0.1
v 0.6 2.2 0
v 1.2 2.2 0
v 1.4 2.2 0
v 0.6 2.4 0.3
v 1.3 2.4 0.3
v 1.4 2.4 0.3
v 0.6 2.4 0
v 1.3 2.4 0
v 1.4 2.4 0

# faces
f 4/1/1 2/1/1 1/1/1
f 5/1/1 2/1/1 4/1/1
f 7/1/1 4/1/1 3/1/1
f 7/1/1 6/1/1 5/1/1
f 7/1/1 5/1/1 4/1/1
f 8/1/1 6/1/1 7/1/1
f 9/1/2 10/1/2 11/1/2
f 11/1/2 10/1/2 12/1/2
f 13/2/2 14/2/2 15/2/2
f 15/2/2 14/2/2 16/2/2
f 19/1/3 18/1/3 17/1/3
f 20/1/3 18/1/3 19/1/3
f 21/2/3 20/2/3 19/2/3
f 21/1/3 18/1/3 20/1/3
f 22/1/3 18/1/3 21/1/3
f 23/2/3 21/2/3 19/2/3
f 23/2/3 22/2/3 21/2/3
f 24/2/3 22/2/3 23/2/3
f 27/1/3 26/1/3 25/1/3
f 28/1/3 26/1/3 27/1/3
f 29/1/4 30/1/4 31/1/4
f 31/1/4 30/1/4 32/1/4
f 33/1/4 34/1/4 35/1/4
f 35/1/4 34/1/4 36/1/4
f 35/2/4 36/2/4 37/2/4
f 36/1/4 34/1/4 37/1/4
f 37/1/4 34/1/4 38/1/4
f 35/2/4 37/2/4 39/2/4
f 37/2/4 38/2/4 39/2/4
f 39/2/4 38/2/4 40/2/4
f 43/1/5 42/1/5 41/1/5
f 44/1/5 42/1/5 43/1/5
f 48/1/5 46/1/5 45/1/5
f 49/2/5 47/2/5 46/2/5
f 49/1/5 46/1/5 48/1/5
f 51/2/5 47/2/5 49/2/5
f 52/1/5 51/1/5 50/1/5
f 53/2/5 47/2/5 51/2/5
f 53/1/5 51/1/5 52/1/5
f 54/2/5 47/2/5 53/2/5
f 55/1/6 56/1/6 58/1/6
f 56/2/6 57/2/6 59/2/6
f 58/1/6 56/1/6 59/1/6
f 59/2/6 57/2/6 60/2/6
